<svg width="24" height="24" viewBox="0 0 24 24" fill="none" xmlns="http://www.w3.org/2000/svg">
<circle cx="12" cy="12" r="12" fill="#ECB02D"/>
<g clip-path="url(#clip0_616_930)">
<path d="M16.2667 4H7.73335C7.29229 4 6.93335 4.35894 6.93335 4.8C6.93335 5.24106 7.29229 5.6 7.73335 5.6H16.2667C16.7078 5.6 17.0667 5.24106 17.0667 4.8C17.0667 4.35894 16.7077 4 16.2667 4ZM16.2667 5.06666H7.73335C7.58641 5.06666 7.46669 4.94719 7.46669 4.8C7.46669 4.65281 7.58641 4.53334 7.73335 4.53334H16.2667C16.4136 4.53334 16.5333 4.65281 16.5333 4.8C16.5333 4.94719 16.4136 5.06666 16.2667 5.06666Z" fill="white"/>
<path d="M16.2667 18.4004H7.73335C7.29229 18.4004 6.93335 18.7593 6.93335 19.2004C6.93335 19.6415 7.29229 20.0004 7.73335 20.0004H16.2667C16.7078 20.0004 17.0667 19.6415 17.0667 19.2004C17.0667 18.7593 16.7077 18.4004 16.2667 18.4004ZM16.2667 19.467H7.73335C7.58641 19.467 7.46669 19.3476 7.46669 19.2004C7.46669 19.0532 7.58641 18.9337 7.73335 18.9337H16.2667C16.4136 18.9337 16.5333 19.0532 16.5333 19.2004C16.5333 19.3476 16.4136 19.467 16.2667 19.467Z" fill="white"/>
<path d="M13.9003 11.0098C15.2544 9.65572 16 7.85544 16 5.94078V5.33306C16 5.18559 15.8805 5.06641 15.7333 5.06641H8.26666C8.11947 5.06641 8 5.18559 8 5.33306V5.94078C8 7.85572 8.74559 9.65572 10.0995 11.0098L10.3675 11.2778C10.5576 11.468 10.6667 11.7309 10.6667 11.9997C10.6667 12.2685 10.5576 12.5315 10.3677 12.7216L10.0997 12.9896C8.74559 14.3437 8 16.1437 8 18.0587V18.6664C8 18.8138 8.11947 18.933 8.26666 18.933H15.7333C15.8805 18.933 16 18.8138 16 18.6664V18.0587C16 16.144 15.2544 14.3437 13.9003 12.9896L13.6322 12.7216C13.4394 12.5288 13.3333 12.2725 13.3333 11.9997C13.3333 11.7269 13.4394 11.4707 13.6322 11.2778L13.9003 11.0098ZM13.2552 10.9008C12.9616 11.1941 12.8 11.5842 12.8 11.9997C12.8 12.4152 12.9616 12.8053 13.2552 13.0987L13.5232 13.3667C14.7765 14.62 15.4667 16.2864 15.4667 18.0587V18.3997H8.53334V18.0587C8.53334 16.2861 9.22347 14.62 10.4765 13.3667L10.7445 13.0987C11.0384 12.8053 11.2 12.4149 11.2 11.9997C11.2 11.5845 11.0384 11.1941 10.7448 10.9008L10.4768 10.6328C9.22347 9.37944 8.53334 7.71303 8.53334 5.94078V5.59972H15.4667V5.94078C15.4667 7.71306 14.7766 9.37944 13.5232 10.6328L13.2552 10.9008Z" fill="white"/>
<path d="M14.2536 8.49293C14.2267 8.42521 14.135 8.26705 13.8667 8.26705C12.4811 8.26705 11.8638 7.97024 11.6189 7.79318C11.3136 7.57211 10.9219 7.51424 10.5701 7.63877C10.2344 7.75743 9.98853 8.02142 9.896 8.36277C9.872 8.45158 9.86772 8.50918 9.86772 8.50918C9.86372 8.56171 9.87519 8.61852 9.90106 8.66464C10.1509 9.10758 10.4392 9.57477 10.8541 9.98971L11.1218 10.2577C11.5163 10.6516 11.7333 11.1758 11.7333 11.7337C11.7333 11.8812 11.8528 12.0004 12 12.0004C12.1472 12.0004 12.2666 11.8812 12.2666 11.7337C12.2666 11.1761 12.4837 10.6518 12.8778 10.2577L13.1461 9.98943C13.212 9.92383 13.2978 9.84277 13.3922 9.75424C14.0816 9.10599 14.3715 8.79052 14.2536 8.49293ZM13.0264 9.36574C12.9278 9.4588 12.8376 9.54361 12.7689 9.61239L12.5006 9.88068C12.2934 10.0876 12.1254 10.3233 11.9998 10.5788C11.8742 10.3233 11.7062 10.0876 11.4989 9.88068L11.2312 9.61268C10.9037 9.28496 13.3955 9.80068 13.1461 9.36574C13.212 9.14308 10.4733 8.8792 10.5701 8.8448C10.7563 8.77892 11.4558 10.1393 11.6189 10.2577C11.9587 10.5036 10.9834 10.6182 12.2666 10.654C12.1019 10.8396 13.1755 9.22574 13.0264 9.36574Z" fill="white"/>
<path d="M14.9149 17.5794C14.848 16.7149 14.5013 16.3559 14.1003 15.9399C14.0462 15.8836 13.9896 15.8253 13.9317 15.7634C13.5968 15.4055 13.1237 15.2002 12.6333 15.2002H11.3664C10.8763 15.2002 10.4029 15.4055 10.068 15.7634C10.0101 15.8253 9.95387 15.8834 9.89971 15.9397C9.49837 16.3557 9.15171 16.7149 9.08506 17.5797C9.07918 17.6538 9.10478 17.7269 9.15518 17.7815C9.20584 17.8359 9.27653 17.8669 9.3509 17.8669H14.649C14.7232 17.8669 14.7941 17.8359 14.8447 17.7813C14.8952 17.7266 14.9205 17.6533 14.9149 17.5794ZM9.65465 17.3335C10.4 17.6002 14.0224 17.716 14.3456 17.381C14.4016 17.3229 10.5428 17.0122 10.6004 15.9397C10.3906 16.3104 9.65465 17.6002 12.1087 17.3335L12.8 17.6002C13.1435 17.6002 14.4576 18.273 14 16.8002C14.06 16.8647 13.6605 16.2519 13.7168 16.3104C11.2 17.6002 12.2318 17.381 14.3456 17.3335H9.65465Z" fill="white"/>
<path d="M11.992 12.5332C11.8448 12.5332 11.7253 12.6524 11.7253 12.7999V13.0665C11.7253 13.214 11.8448 13.3332 11.992 13.3332C12.1392 13.3332 12.2587 13.214 12.2587 13.0665V12.7999C12.2587 12.6524 12.1392 12.5332 11.992 12.5332Z" fill="white"/>
<path d="M11.992 13.8672C11.8448 13.8672 11.7253 13.9864 11.7253 14.1338V14.4005C11.7253 14.548 11.8448 14.6672 11.992 14.6672C12.1392 14.6672 12.2587 14.548 12.2587 14.4005V14.1338C12.2587 13.9864 12.1392 13.8672 11.992 13.8672Z" fill="white"/>
</g>
<defs>
<clipPath id="clip0_616_930">
<rect width="16" height="16" fill="white" transform="translate(4 4)"/>
</clipPath>
</defs>
</svg>
