<svg width="80" height="92" viewBox="0 0 80 92" fill="none" xmlns="http://www.w3.org/2000/svg">
<path d="M80 23.8179C80 23.8179 74.1471 66.6045 64.5482 76.1958C53.0179 87.7393 44.6482 86.0456 39.9951 92.0001C35.342 86.0367 26.9723 87.7393 15.4323 76.1869C5.83344 66.5688 0 23.809 0 23.809C25.3042 12.5864 39.9951 0 39.9951 0C40.4536 0.410038 55.086 12.7736 80 23.8179Z" fill="#37474F"/>
<path d="M39.9951 0.017818V92.0001C35.342 86.0367 26.9723 87.7393 15.4323 76.1869C5.83344 66.5688 0 23.809 0 23.809C25.3042 12.5864 39.9951 0 39.9951 0V0.017818Z" fill="#263238"/>
<path d="M73.7859 27.2676C73.7859 27.2676 68.8499 63.3777 60.7436 71.5071C50.9886 81.3124 43.9163 79.8416 39.9851 84.8779C36.0831 79.8505 28.9816 81.3124 19.2364 71.5071C11.1203 63.3777 6.19409 27.2676 6.19409 27.2676C27.5769 17.7743 39.9851 7.14893 39.9851 7.14893C39.9851 7.14893 52.4129 17.7386 73.7859 27.2676Z" fill="#455A64"/>
<path d="M6.20654 27.2679C6.20654 27.2679 11.1425 63.378 19.2586 71.5164C29.0135 81.2682 36.0663 79.8419 39.9976 84.8872V7.1582C39.6171 7.48802 27.2576 17.9262 6.20654 27.2679Z" fill="#37474F"/>
<path d="M39.9952 60.3382C48.6529 60.3382 55.6714 53.9248 55.6714 46.0136C55.6714 38.1023 48.6529 31.689 39.9952 31.689C31.3375 31.689 24.3191 38.1023 24.3191 46.0136C24.3191 53.9248 31.3375 60.3382 39.9952 60.3382Z" fill="#DB2228"/>
<path d="M38.2103 55.3076L31.2258 48.6756L33.8206 46.4026L37.6641 50.0573L45.9557 38.4336L48.97 40.2253L38.2103 55.3076Z" fill="white"/>
</svg>
